<svg clip-rule="evenodd" fill-rule="evenodd" stroke-linejoin="round" stroke-miterlimit="2" viewBox="0 0 560 400" xmlns="http://www.w3.org/2000/svg"><g fill="#0b7ac0" fill-rule="nonzero" transform="matrix(.446233 0 0 .446233 26.3855 177.166)"><path d="m8.1 19.99h28.24c6.95 0 12.42 1.96 15.9 5.52 2.78 2.85 4.17 6.32 4.17 10.6v.18c0 7.04-3.65 10.96-7.99 13.45 7.04 2.76 11.38 6.95 11.38 15.32v.18c0 11.4-9.04 17.1-22.76 17.1h-28.94zm25.37 25.21c5.91 0 9.64-1.96 9.64-6.59v-.18c0-4.1-3.13-6.41-8.78-6.41h-13.19v13.18zm3.57 25.12c5.91 0 9.47-2.14 9.47-6.77v-.18c0-4.19-3.04-6.77-9.9-6.77h-15.47v13.72z"/><path d="m91.68 19.55h12.34l26.06 62.8h-13.98l-5.56-13.99h-25.72l-5.56 13.99h-13.64zm14.08 36.7-8.08-20.22-8.08 20.22z"/><path d="m133.38 73.89 8.43-9.62c3.48 3.92 6.86 6.24 11.12 6.24 5.04 0 8.17-3.12 8.17-10.33v-40.19h13.73v40.8c0 7.39-2.08 12.92-5.73 16.66-3.74 3.83-9.21 5.79-15.81 5.79-9.48 0-15.74-4.27-19.91-9.35z"/><path d="m207.15 19.55h12.34l26.06 62.8h-13.99l-5.56-13.99h-25.72l-5.56 13.99h-13.64zm14.07 36.7-8.08-20.22-8.08 20.22z"/><path d="m248.85 73.89 8.43-9.62c3.48 3.92 6.86 6.24 11.12 6.24 5.04 0 8.17-3.12 8.17-10.33v-40.19h13.73v40.8c0 7.39-2.08 12.92-5.73 16.66-3.74 3.83-9.21 5.79-15.81 5.79-9.49 0-15.74-4.27-19.91-9.35z"/><path d="m329.99 19.99h46.31v12.47h-32.93v13.27h29.02v12.47h-29.02v24.14h-13.38z"/><path d="m387.59 19.99h13.38v62.36h-13.38z"/><path d="m416.18 19.99h12.34l28.5 38.39v-38.39h13.21v62.36h-11.38l-29.45-39.64v39.64h-13.21v-62.36z"/><path d="m505.66 19.55h12.34l26.06 62.8h-13.99l-5.56-13.99h-25.71l-5.56 13.99h-13.64zm14.08 36.7-8.08-20.22-8.08 20.22z"/><path d="m553.45 19.99h12.34l28.5 38.39v-38.39h13.21v62.36h-11.38l-29.45-39.64v39.64h-13.21v-62.36z"/><path d="m619.39 51.35v-.18c0-17.73 13.03-32.25 31.71-32.25 11.47 0 18.33 3.92 23.98 9.62l-8.51 10.07c-4.69-4.36-9.47-7.04-15.55-7.04-10.25 0-17.64 8.73-17.64 19.42v.18c0 10.69 7.21 19.6 17.64 19.6 6.95 0 11.21-2.85 15.99-7.3l8.51 8.82c-6.26 6.86-13.21 11.13-24.94 11.13-17.9 0-31.19-14.16-31.19-32.07z"/><path d="m686.2 19.99h45.88v12.2h-32.58v12.65h28.67v12.2h-28.67v13.09h33.02v12.2h-46.32z"/><path d="m770.47 19.99h13.38v49.89h30.32v12.47h-43.7z"/><path d="m824.86 19.99h13.38v62.36h-13.38z"/><path d="m853.44 19.99h14.42l15.99 26.37 15.99-26.37h14.42v62.36h-13.29v-40.71l-17.12 26.64h-.35l-16.94-26.37v40.44h-13.12z"/><path d="m929.46 19.99h13.38v62.36h-13.38z"/><path d="m972.21 32.64h-18.51v-12.65h50.39v12.65h-18.51v49.71h-13.38v-49.71z"/><path d="m1014.34 19.99h45.88v12.2h-32.58v12.65h28.67v12.2h-28.67v13.09h33.02v12.2h-46.31v-62.34z"/><path d="m1072.55 19.99h23.72c19.11 0 32.32 13.45 32.32 31v.18c0 17.55-13.21 31.18-32.32 31.18h-23.72zm23.72 49.98c10.95 0 18.33-7.57 18.33-18.62v-.18c0-11.05-7.38-18.8-18.33-18.8h-10.34v37.59h10.34z"/></g></svg>