<?xml version="1.0" encoding="UTF-8"?>
<svg version="1.1" xmlns="http://www.w3.org/2000/svg" width="200" height="200">
<path d="M0 0 C66 0 132 0 200 0 C200 66 200 132 200 200 C134 200 68 200 0 200 C0 134 0 68 0 0 Z " fill="#5CB9FE" transform="translate(0,0)"/>
<path d="M0 0 C1.32 0 2.64 0 4 0 C5.484375 1.53125 5.484375 1.53125 6.75 3.5 C7.39195313 4.47453125 7.39195313 4.47453125 8.046875 5.46875 C8.36140625 5.9740625 8.6759375 6.479375 9 7 C12.99996286 5.66667905 13.83782337 3.5042173 16 0 C18.475 0.495 18.475 0.495 21 1 C21 6.94 21 12.88 21 19 C19.35 19.33 17.7 19.66 16 20 C15.505 15.05 15.505 15.05 15 10 C14.1028125 11.2375 14.1028125 11.2375 13.1875 12.5 C12.465625 13.325 11.74375 14.15 11 15 C10.01 15 9.02 15 8 15 C6.3125 12.5 6.3125 12.5 5 10 C4.67 13.3 4.34 16.6 4 20 C2.35 19.67 0.7 19.34 -1 19 C-1.02683987 16.02077407 -1.04676037 13.04178705 -1.0625 10.0625 C-1.07087891 9.21236328 -1.07925781 8.36222656 -1.08789062 7.48632812 C-1.09111328 6.67744141 -1.09433594 5.86855469 -1.09765625 5.03515625 C-1.10289307 4.2862915 -1.10812988 3.53742676 -1.11352539 2.76586914 C-1 1 -1 1 0 0 Z " fill="#F0F8FB" transform="translate(97,102)"/>
<path d="M0 0 C2.475 0.495 2.475 0.495 5 1 C5 2.32 5 3.64 5 5 C5.66 5 6.32 5 7 5 C7.66 4.01 8.32 3.02 9 2 C10.32 2 11.64 2 13 2 C13 3.65 13 5.3 13 7 C14.32 7 15.64 7 17 7 C17 8.32 17 9.64 17 11 C15.68 11 14.36 11 13 11 C13.34444881 13.47266765 13.34444881 13.47266765 14 16 C14.66 16.33 15.32 16.66 16 17 C16 18.32 16 19.64 16 21 C14.02 21 12.04 21 10 21 C10 21.66 10 22.32 10 23 C9.34 23 8.68 23 8 23 C7.67 20.69 7.34 18.38 7 16 C6.34 16 5.68 16 5 16 C4.67 17.65 4.34 19.3 4 21 C2.68 21 1.36 21 0 21 C0 14 0 7 0 0 Z " fill="#6BBEFA" transform="translate(120,101)"/>
<path d="M0 0 C0.99386719 0.02707031 1.98773438 0.05414063 3.01171875 0.08203125 C4.15060547 0.13423828 4.15060547 0.13423828 5.3125 0.1875 C5.4206866 2.77195773 5.49987237 5.35187352 5.5625 7.9375 C5.61277344 9.03191406 5.61277344 9.03191406 5.6640625 10.1484375 C5.72847378 13.6910581 5.61393328 15.76443574 3.53125 18.6875 C0.42213697 20.78943557 -2.02575206 20.46917292 -5.6875 20.1875 C-6.3475 18.8675 -7.0075 17.5475 -7.6875 16.1875 C-7.089375 16.043125 -6.49125 15.89875 -5.875 15.75 C-4.12599596 15.3002561 -2.40072977 14.75857659 -0.6875 14.1875 C-1.450625 14.105 -2.21375 14.0225 -3 13.9375 C-5.6875 13.1875 -5.6875 13.1875 -7.5 11.5 C-9.04356595 8.49410842 -9.11349916 6.52449345 -8.6875 3.1875 C-6.27060068 -0.27214183 -4.03836199 -0.14253042 0 0 Z " fill="#EFF8FC" transform="translate(72.6875,107.8125)"/>
<path d="M0 0 C0 5.28 0 10.56 0 16 C-0.99 16 -1.98 16 -3 16 C-3.495 11.545 -3.495 11.545 -4 7 C-8.91593809 11.81954715 -13.71330145 16.60705666 -18 22 C-21.70503641 21.39665691 -23.85968148 19.77525763 -26.75 17.4375 C-27.54921875 16.79683594 -28.3484375 16.15617187 -29.171875 15.49609375 C-29.77515625 15.00238281 -30.3784375 14.50867188 -31 14 C-34.51711034 15.49935769 -36.77068476 17.53234426 -39.4375 20.25 C-40.22253906 21.04792969 -41.00757812 21.84585938 -41.81640625 22.66796875 C-43.60561209 24.57880218 -45.26033723 26.50613617 -46.875 28.5625 C-47.57625 29.366875 -48.2775 30.17125 -49 31 C-49.99 31 -50.98 31 -52 31 C-50.54254576 27.63664406 -48.68882146 25.45465995 -46.0859375 22.890625 C-45.32539062 22.13652344 -44.56484375 21.38242188 -43.78125 20.60546875 C-42.9871875 19.82816406 -42.193125 19.05085938 -41.375 18.25 C-40.57320312 17.45722656 -39.77140625 16.66445312 -38.9453125 15.84765625 C-36.96797154 13.89385507 -34.98611091 11.94487897 -33 10 C-28.08794457 12.75971421 -23.54148152 15.66340133 -19 19 C-17.3936298 17.2519799 -15.78986703 15.50168356 -14.1875 13.75 C-13.73568359 13.25886719 -13.28386719 12.76773438 -12.81835938 12.26171875 C-10.39181973 9.60492352 -8.09650029 6.92534924 -6 4 C-8.97 4 -11.94 4 -15 4 C-14.67 3.34 -14.34 2.68 -14 2 C-8.85386133 0.42999159 -5.53116065 0 0 0 Z " fill="#06577D" transform="translate(126,56)"/>
<path d="M0 0 C1.76171875 0.078125 1.76171875 0.078125 4 1 C5.48266593 3.26099156 6.65546466 5.33319045 7.8125 7.75 C8.29879883 8.68199219 8.29879883 8.68199219 8.79492188 9.6328125 C10.2679658 12.62306012 11.04035634 14.6037741 10.69921875 17.953125 C10.46847656 18.62859375 10.23773438 19.3040625 10 20 C9.01 20 8.02 20 7 20 C6.67 18.68 6.34 17.36 6 16 C3.03 16 0.06 16 -3 16 C-3.33 17.32 -3.66 18.64 -4 20 C-5.32 20 -6.64 20 -8 20 C-7.50839669 14.56466759 -6.12206673 10.7970995 -3.4375 6.0625 C-2.79683594 4.91910156 -2.15617187 3.77570313 -1.49609375 2.59765625 C-0.75552734 1.31181641 -0.75552734 1.31181641 0 0 Z " fill="#ECF6FB" transform="translate(43,102)"/>
<path d="M0 0 C0 4.62 0 9.24 0 14 C-1.588125 14.061875 -3.17625 14.12375 -4.8125 14.1875 C-5.70582031 14.22230469 -6.59914062 14.25710937 -7.51953125 14.29296875 C-10 14 -10 14 -11.765625 12.703125 C-13.81004312 9.88234556 -13.93992424 7.42431816 -14 4 C-10.98713594 -1.59531898 -5.58374824 -0.29388149 0 0 Z " fill="#F4FAFC" transform="translate(164,108)"/>
<path d="M0 0 C2.5 2.125 2.5 2.125 4 5 C4 8.48787032 3.66872079 10.22839909 1.375 12.875 C-1.9609914 14.45520645 -4.35904279 14.46339455 -8 14 C-10.87915173 11.67810344 -10.98552483 10.11786923 -11.4375 6.4375 C-11 3 -11 3 -9.4375 1.0625 C-6.01830718 -0.42791738 -3.68928508 -0.52704073 0 0 Z " fill="#F5FAFB" transform="translate(91,108)"/>
<path d="M0 0 C1.32 0 2.64 0 4 0 C4 1.65 4 3.3 4 5 C5.32 5 6.64 5 8 5 C8 6.32 8 7.64 8 9 C6.68 9 5.36 9 4 9 C4.34444881 11.47266765 4.34444881 11.47266765 5 14 C5.66 14.33 6.32 14.66 7 15 C7 16.32 7 17.64 7 19 C4.625 19.125 4.625 19.125 2 19 C0 17 0 17 -0.1953125 15.0546875 C-0.13020833 13.03645833 -0.06510417 11.01822917 0 9 C-0.99 9 -1.98 9 -3 9 C-3 7.68 -3 6.36 -3 5 C-2.01 5 -1.02 5 0 5 C0 3.35 0 1.7 0 0 Z " fill="#F7FBFC" transform="translate(129,103)"/>
<path d="M0 0 C1.32 0 2.64 0 4 0 C4 5.61 4 11.22 4 17 C4.99 17 5.98 17 7 17 C7 18.32 7 19.64 7 21 C5.02 21 3.04 21 1 21 C-1.54082701 17.17369529 -1.26210703 13.23002166 -1.1875 8.8125 C-1.18685547 8.07580078 -1.18621094 7.33910156 -1.18554688 6.58007812 C-1.14050904 1.14050904 -1.14050904 1.14050904 0 0 Z " fill="#EDF7FB" transform="translate(56,101)"/>
<path d="M0 0 C3.63 0 7.26 0 11 0 C10.67 1.65 10.34 3.3 10 5 C8.35 5 6.7 5 5 5 C5 7.64 5 10.28 5 13 C3.35 13.33 1.7 13.66 0 14 C0 9.38 0 4.76 0 0 Z " fill="#EFF7FC" transform="translate(139,108)"/>
<path d="M0 0 C0 5.28 0 10.56 0 16 C-0.99 16 -1.98 16 -3 16 C-3.33 13.03 -3.66 10.06 -4 7 C-4.99 7.495 -4.99 7.495 -6 8 C-6.66 7.34 -7.32 6.68 -8 6 C-7.34 5.34 -6.68 4.68 -6 4 C-8.97 4 -11.94 4 -15 4 C-14.67 3.34 -14.34 2.68 -14 2 C-8.85386133 0.42999159 -5.53116065 0 0 0 Z " fill="#176893" transform="translate(126,56)"/>
<path d="M0 0 C2.475 0.495 2.475 0.495 5 1 C5 4.96 5 8.92 5 13 C3.35 13.33 1.7 13.66 0 14 C0 9.38 0 4.76 0 0 Z " fill="#EFF7FC" transform="translate(120,108)"/>
<path d="M0 0 C0.33 1.32 0.66 2.64 1 4 C1.5775 3.649375 2.155 3.29875 2.75 2.9375 C5.35801776 1.85082593 6.39417629 2.06934867 9 3 C8.67 4.65 8.34 6.3 8 8 C7.01 8 6.02 8 5 8 C4.67 9.32 4.34 10.64 4 12 C0.125 10.25 0.125 10.25 -1 8 C-1.125 4.4375 -1.125 4.4375 -1 1 C-0.67 0.67 -0.34 0.34 0 0 Z " fill="#E6F5FC" transform="translate(81,110)"/>
<path d="M0 0 C0.66 0.33 1.32 0.66 2 1 C2 5.29 2 9.58 2 14 C3.32 14.33 4.64 14.66 6 15 C3.69 15.33 1.38 15.66 -1 16 C-1 14.02 -1 12.04 -1 10 C-1.99 9.67 -2.98 9.34 -4 9 C-4 7.35 -4 5.7 -4 4 C-2.68 4 -1.36 4 0 4 C0 2.68 0 1.36 0 0 Z " fill="#70C1FC" transform="translate(137,108)"/>
<path d="M0 0 C3.13782964 1.56891482 5.50839252 3.02310093 8.25 5.125 C8.95640625 5.66382812 9.6628125 6.20265625 10.390625 6.7578125 C10.92171875 7.16773437 11.4528125 7.57765625 12 8 C11.34 8.66 10.68 9.32 10 10 C6.9375 9.75 6.9375 9.75 4 9 C3 7 3 7 2 4 C1.4225 4.309375 0.845 4.61875 0.25 4.9375 C-2 6 -2 6 -6 7 C-4.02 4.69 -2.04 2.38 0 0 Z " fill="#58B3F4" transform="translate(93,69)"/>
<path d="M0 0 C0.99 0 1.98 0 3 0 C3 0.99 3 1.98 3 3 C3.33 2.67 3.66 2.34 4 2 C6.67058851 1.85884839 9.32432238 1.95752893 12 2 C11.125 5.875 11.125 5.875 10 7 C8.14227838 6.91015699 6.28752015 6.75388139 4.4375 6.5625 C2.91962891 6.40974609 2.91962891 6.40974609 1.37109375 6.25390625 C0.19740234 6.12822266 0.19740234 6.12822266 -1 6 C-1 3 -1 3 0 0 Z " fill="#B0DCFA" transform="translate(48,136)"/>
<path d="M0 0 C0.33 0 0.66 0 1 0 C0.74438677 2.3431213 0.40729228 4.67843403 0 7 C-2.95664519 8.4783226 -5.74229737 8.06032783 -9 8 C-9.66 6.68 -10.32 5.36 -11 4 C-7.67465243 2.89155081 -5.37817425 3.15545644 -2 4 C-1.34 2.68 -0.68 1.36 0 0 Z " fill="#F4F8F9" transform="translate(76,120)"/>
<path d="M0 0 C0.66 0.33 1.32 0.66 2 1 C2 1.99 2 2.98 2 4 C3.32 4.33 4.64 4.66 6 5 C5.67 6.32 5.34 7.64 5 9 C2.03 8.505 2.03 8.505 -1 8 C-1.33 8.66 -1.66 9.32 -2 10 C-3 9 -3 9 -3.25 6.125 C-3 3 -3 3 -1.5 1.125 C-1.005 0.75375 -0.51 0.3825 0 0 Z " fill="#C1E3FB" transform="translate(67,108)"/>
<path d="M0 0 C0.66 0 1.32 0 2 0 C2 2.31 2 4.62 2 7 C1.34 7 0.68 7 0 7 C0 6.01 0 5.02 0 4 C-0.66 4 -1.32 4 -2 4 C-2 5.32 -2 6.64 -2 8 C-4.31 7.67 -6.62 7.34 -9 7 C-9 5.68 -9 4.36 -9 3 C-6.525 3.495 -6.525 3.495 -4 4 C-3.67 3.34 -3.34 2.68 -3 2 C-2.01 2 -1.02 2 0 2 C0 1.34 0 0.68 0 0 Z " fill="#C5E5FA" transform="translate(136,135)"/>
<path d="M0 0 C0.66 0 1.32 0 2 0 C2 0.66 2 1.32 2 2 C2.99 2 3.98 2 5 2 C4.42655063 4.86724686 4.1385485 5.8614515 2 8 C-0.625 7.625 -0.625 7.625 -3 7 C-3.33 5.35 -3.66 3.7 -4 2 C-3.34 1.67 -2.68 1.34 -2 1 C-1.34 1.33 -0.68 1.66 0 2 C0 1.34 0 0.68 0 0 Z " fill="#B3DDFA" transform="translate(143,136)"/>
<path d="M0 0 C0.33 0.66 0.66 1.32 1 2 C1.99 2.33 2.98 2.66 4 3 C4.33 2.34 4.66 1.68 5 1 C6.32 1 7.64 1 9 1 C9 2.32 9 3.64 9 5 C7 7 7 7 4 8 C3.01 8.495 3.01 8.495 2 9 C0.14223235 5.86501708 -0.20140476 3.62528568 0 0 Z " fill="#B8DFFA" transform="translate(150,112)"/>
<path d="M0 0 C1.9375 0.375 1.9375 0.375 4 1 C4.33 1.66 4.66 2.32 5 3 C5.66 2.67 6.32 2.34 7 2 C6.34 3.98 5.68 5.96 5 8 C3.35 7.67 1.7 7.34 0 7 C0 4.69 0 2.38 0 0 Z " fill="#B6DFFB" transform="translate(176,136)"/>
<path d="M0 0 C2.31 0.33 4.62 0.66 7 1 C7.33 2.65 7.66 4.3 8 6 C7.236875 5.814375 6.47375 5.62875 5.6875 5.4375 C2.91032625 4.77180827 2.91032625 4.77180827 0 6 C0 4.02 0 2.04 0 0 Z " fill="#B3DDF9" transform="translate(23,137)"/>
<path d="M0 0 C2.31 0.33 4.62 0.66 7 1 C7.33 2.65 7.66 4.3 8 6 C6.35 5.67 4.7 5.34 3 5 C3 4.34 3 3.68 3 3 C2.34 3 1.68 3 1 3 C0.67 3.66 0.34 4.32 0 5 C0 3.35 0 1.7 0 0 Z " fill="#CDE8FA" transform="translate(87,137)"/>
<path d="M0 0 C0.99 0.99 1.98 1.98 3 3 C3.33 2.01 3.66 1.02 4 0 C4.66 0 5.32 0 6 0 C6 1.98 6 3.96 6 6 C4.68 6.33 3.36 6.66 2 7 C2 6.34 2 5.68 2 5 C0.68 5.33 -0.64 5.66 -2 6 C-1.125 1.125 -1.125 1.125 0 0 Z " fill="#CAE8FA" transform="translate(113,136)"/>
<path d="M0 0 C0.886875 0.165 1.77375 0.33 2.6875 0.5 C5.53596892 0.92995757 8.13004802 1.08441035 11 1 C8.525 4.465 8.525 4.465 6 8 C5.34 7.67 4.68 7.34 4 7 C4 6.01 4 5.02 4 4 C2.68 3.67 1.36 3.34 0 3 C0 2.01 0 1.02 0 0 Z " fill="#4CA4E2" transform="translate(110,58)"/>
<path d="M0 0 C0.66 0.66 1.32 1.32 2 2 C1.67 2.66 1.34 3.32 1 4 C2.32 4 3.64 4 5 4 C5 4.99 5 5.98 5 7 C2.525 6.01 2.525 6.01 0 5 C-0.66 5.66 -1.32 6.32 -2 7 C-2 6.34 -2 5.68 -2 5 C-2.66 5 -3.32 5 -4 5 C-4 3.68 -4 2.36 -4 1 C-2.125 0.375 -2.125 0.375 0 0 Z " fill="#B0DBFA" transform="translate(72,137)"/>
<path d="M0 0 C0.66 0 1.32 0 2 0 C2 5.28 2 10.56 2 16 C1.34 16 0.68 16 0 16 C-0.19389096 13.5211787 -0.38040123 11.04219069 -0.5625 8.5625 C-0.61857422 7.85544922 -0.67464844 7.14839844 -0.73242188 6.41992188 C-0.86190993 4.61572163 -0.93521608 2.80768048 -1 1 C-0.67 0.67 -0.34 0.34 0 0 Z " fill="#0B5A80" transform="translate(124,56)"/>
<path d="M0 0 C0.33 0 0.66 0 1 0 C1 4.95 1 9.9 1 15 C0.01 15 -0.98 15 -2 15 C-2 15.66 -2 16.32 -2 17 C-4.31 17 -6.62 17 -9 17 C-8.360625 16.896875 -7.72125 16.79375 -7.0625 16.6875 C-6.0415625 16.3471875 -6.0415625 16.3471875 -5 16 C-4.67 15.01 -4.34 14.02 -4 13 C-2.68 13.33 -1.36 13.66 0 14 C0 9.38 0 4.76 0 0 Z " fill="#7FC6FC" transform="translate(164,108)"/>
<path d="M0 0 C-0.33 0.99 -0.66 1.98 -1 3 C-1.34820041 4.66362417 -1.68404492 6.32995171 -2 8 C-3.32 8 -4.64 8 -6 8 C-5.62403791 5.21788056 -5.32681541 3.4120716 -3.5625 1.1875 C-2 0 -2 0 0 0 Z " fill="#F5FAF9" transform="translate(41,114)"/>
<path d="M0 0 C2.64 0 5.28 0 8 0 C8 0.66 8 1.32 8 2 C7.34 2 6.68 2 6 2 C5.67 2.66 5.34 3.32 5 4 C3.35 3.67 1.7 3.34 0 3 C0 2.01 0 1.02 0 0 Z " fill="#FAFCF9" transform="translate(69,108)"/>
<path d="M0 0 C2.475 0.495 2.475 0.495 5 1 C5 2.32 5 3.64 5 5 C3.35 4.67 1.7 4.34 0 4 C0 2.68 0 1.36 0 0 Z " fill="#BAE1FC" transform="translate(167,138)"/>
<path d="M0 0 C1.32 0 2.64 0 4 0 C4 1.98 4 3.96 4 6 C2.68 5.67 1.36 5.34 0 5 C-0.5625 3.0625 -0.5625 3.0625 -1 1 C-0.67 0.67 -0.34 0.34 0 0 Z " fill="#D4EBFB" transform="translate(121,138)"/>
<path d="M0 0 C2.475 0.495 2.475 0.495 5 1 C4.67 2.32 4.34 3.64 4 5 C2.68 5 1.36 5 0 5 C0 3.35 0 1.7 0 0 Z " fill="#E0F3FB" transform="translate(120,101)"/>
<path d="M0 0 C0.33 0 0.66 0 1 0 C1 1.98 1 3.96 1 6 C-0.65 6 -2.3 6 -4 6 C-4 4.68 -4 3.36 -4 2 C-2.68 2 -1.36 2 0 2 C0 1.34 0 0.68 0 0 Z " fill="#CFEAFC" transform="translate(100,136)"/>
<path d="M0 0 C1.98 0.495 1.98 0.495 4 1 C3.67 2.32 3.34 3.64 3 5 C1.68 5 0.36 5 -1 5 C-0.67 3.35 -0.34 1.7 0 0 Z " fill="#6CBCF8" transform="translate(86,112)"/>
<path d="M0 0 C0.66 0.99 1.32 1.98 2 3 C0.1875 5 0.1875 5 -2 7 C-2.99 7 -3.98 7 -5 7 C-3.70700306 4.11562221 -2.34058637 2.12780579 0 0 Z " fill="#13668F" transform="translate(79,80)"/>
<path d="M0 0 C0.33 0 0.66 0 1 0 C1 1.98 1 3.96 1 6 C-0.65 6 -2.3 6 -4 6 C-3.67 4.68 -3.34 3.36 -3 2 C-2.01 2 -1.02 2 0 2 C0 1.34 0 0.68 0 0 Z " fill="#D2EBFC" transform="translate(36,136)"/>
<path d="M0 0 C1.98 0.495 1.98 0.495 4 1 C3.67 2.32 3.34 3.64 3 5 C1.68 4.67 0.36 4.34 -1 4 C-0.67 2.68 -0.34 1.36 0 0 Z " fill="#C4E5FB" transform="translate(103,138)"/>
<path d="M0 0 C1.98 0 3.96 0 6 0 C6 0.66 6 1.32 6 2 C5.34 2 4.68 2 4 2 C4 3.32 4 4.64 4 6 C3.34 6 2.68 6 2 6 C2 4.68 2 3.36 2 2 C1.34 2 0.68 2 0 2 C0 1.34 0 0.68 0 0 Z " fill="#C6E6FA" transform="translate(80,136)"/>
<path d="M0 0 C0.66 1.32 1.32 2.64 2 4 C1.38125 4.28875 0.7625 4.5775 0.125 4.875 C-2.13325765 5.93720042 -2.13325765 5.93720042 -4 8 C-4.33 7.34 -4.66 6.68 -5 6 C-3.35 4.02 -1.7 2.04 0 0 Z " fill="#51ABEB" transform="translate(116,68)"/>
<path d="M0 0 C2.0625 0.4375 2.0625 0.4375 4 1 C3.67 2.32 3.34 3.64 3 5 C2.01 5 1.02 5 0 5 C-0.5625 3.0625 -0.5625 3.0625 -1 1 C-0.67 0.67 -0.34 0.34 0 0 Z " fill="#C7E7FA" transform="translate(39,138)"/>
<path d="M0 0 C0.66 0 1.32 0 2 0 C2 2.31 2 4.62 2 7 C1.34 7 0.68 7 0 7 C-0.33 6.01 -0.66 5.02 -1 4 C-1.66 3.34 -2.32 2.68 -3 2 C-2.01 2 -1.02 2 0 2 C0 1.34 0 0.68 0 0 Z " fill="#A1D6FA" transform="translate(136,135)"/>
<path d="M0 0 C3.465 1.98 3.465 1.98 7 4 C6.01 4.66 5.02 5.32 4 6 C2.35 4.35 0.7 2.7 -1 1 C-0.67 0.67 -0.34 0.34 0 0 Z " fill="#0D5F88" transform="translate(97,69)"/>
<path d="M0 0 C1.32 0 2.64 0 4 0 C4 1.32 4 2.64 4 4 C3.01 4.33 2.02 4.66 1 5 C0.67 3.35 0.34 1.7 0 0 Z " fill="#CFEAFB" transform="translate(62,138)"/>
<path d="M0 0 C2.16874252 0.50603992 3.99967627 0.99983813 6 2 C5.67 2.99 5.34 3.98 5 5 C5 4.34 5 3.68 5 3 C3.68 3 2.36 3 1 3 C0.67 3.66 0.34 4.32 0 5 C0 3.35 0 1.7 0 0 Z " fill="#A4D8FB" transform="translate(87,137)"/>
<path d="M0 0 C0.99 0 1.98 0 3 0 C3 1.98 3 3.96 3 6 C1.68 5.67 0.36 5.34 -1 5 C-0.67 3.35 -0.34 1.7 0 0 Z " fill="#DAEEFC" transform="translate(48,136)"/>
<path d="M0 0 C1.32 0.33 2.64 0.66 4 1 C3.01 2.32 2.02 3.64 1 5 C-0.32 4.67 -1.64 4.34 -3 4 C-2.01 2.68 -1.02 1.36 0 0 Z " fill="#E2F3FE" transform="translate(113,102)"/>
</svg>
